<svg width="633" height="420" viewBox="0 0 633 420" fill="none" xmlns="http://www.w3.org/2000/svg">
<g clip-path="url(#clip0_14_3015)">
<path d="M320.673 118.045C315.028 108.718 308.34 98.7586 297.866 95.7128C285.737 92.1857 273.276 99.1925 262.707 106.107C231.099 126.785 200.661 149.195 171.53 173.233L171.562 173.595C194.241 172.032 216.92 170.469 239.6 168.907C255.985 167.777 272.934 166.493 287.415 158.747C292.91 155.808 298.266 151.882 304.492 151.608C312.228 151.269 318.974 156.667 324.275 162.307C355.631 195.671 364.705 246.693 399.883 276.006C377.701 221.343 351.214 168.524 320.673 118.045Z" fill="#D3D3D3"/>
<path d="M513.414 401.033C509.947 396.658 508.53 395.634 505.11 391.218C477.26 355.226 451.083 318.019 426.58 279.596C409.936 253.5 394.118 226.904 379.125 199.806C371.987 186.923 365.045 173.94 358.298 160.855C353.063 150.709 347.945 140.503 342.943 130.236C341.513 127.303 340.123 124.357 338.74 121.405C335.481 114.461 332.283 107.484 328.849 100.635C324.937 92.8285 320.174 84.6446 312.988 79.3999C309.718 76.9151 305.808 75.4116 301.715 75.0653C295.865 74.6878 290.468 77.1011 285.395 79.737C248.275 99.0777 213.524 123.326 182.092 150.918C150.579 178.572 122.412 209.815 98.1648 244.009C97.423 245.067 95.6688 244.056 96.4176 242.991C99.3659 238.825 102.373 234.703 105.438 230.627C143.551 179.977 190.283 136.421 243.499 101.949C252.452 96.152 261.573 90.6264 270.863 85.3726C275.545 82.7233 280.247 80.1077 285.031 77.6539C289.719 75.2473 294.698 73.0833 300.055 73.0024C318.284 72.7193 327.723 93.3476 334.206 107.228C336.244 111.596 338.306 115.951 340.393 120.293C348.279 136.775 356.47 153.107 364.964 169.288C370.206 179.279 375.562 189.211 381.034 199.085C398.062 229.832 416.161 259.956 435.33 289.458C460.724 328.538 485.916 363.06 514.845 399.604C515.641 400.615 514.218 402.058 513.414 401.033Z" fill="#D3D3D3"/>
<path d="M180.29 140.732C179.231 139.552 178.179 138.372 177.113 137.193C168.707 127.903 159.687 118.722 148.143 113.396C142.639 110.776 136.631 109.385 130.535 109.317C124.234 109.338 118.074 110.989 112.252 113.302C109.499 114.4 106.807 115.647 104.156 116.975C101.127 118.499 98.1514 120.124 95.1899 121.762C89.6306 124.836 84.1434 128.045 78.7284 131.388C67.954 138.042 57.5171 145.204 47.4176 152.873C42.1821 156.85 37.0546 160.958 32.0353 165.196C27.3667 169.133 22.7926 173.175 18.3129 177.324C17.355 178.207 15.9246 176.777 16.8826 175.894C18.0632 174.796 19.2574 173.703 20.4515 172.625C23.8248 169.578 27.2521 166.589 30.7334 163.659C37.0817 158.306 43.5943 153.16 50.2713 148.221C60.6544 140.536 71.3948 133.373 82.4927 126.73C88.0385 123.413 93.6606 120.236 99.359 117.198C101.08 116.281 102.82 115.385 104.581 114.535C108.576 112.521 112.728 110.833 116.995 109.486C123.039 107.532 129.434 106.904 135.743 107.646C141.835 108.531 147.704 110.56 153.041 113.625C164.375 119.955 173.166 129.743 181.721 139.296C182.585 140.267 181.161 141.703 180.29 140.732Z" fill="#D3D3D3"/>
<path d="M412.522 236.996L439.682 227.07L453.166 222.142C457.558 220.537 461.939 218.709 466.479 217.56C470.425 216.434 474.614 216.487 478.529 217.713C482.021 219.005 485.217 220.985 487.928 223.535C490.697 226.083 493.274 228.833 495.637 231.761C498.572 235.287 501.465 238.849 504.37 242.4C516.362 257.053 528.275 271.771 540.11 286.552C551.944 301.332 563.699 316.176 575.375 331.082C587.08 346.025 598.704 361.03 610.248 376.098C611.662 377.944 613.075 379.791 614.487 381.638C615.267 382.659 617.025 381.653 616.234 380.617C604.605 365.398 592.896 350.241 581.105 335.147C569.285 320.016 557.383 304.949 545.4 289.947C533.417 274.945 521.353 260.008 509.207 245.136C506.182 241.431 503.151 237.73 500.115 234.033C497.555 230.915 495.023 227.763 492.214 224.86C487.059 219.532 480.618 214.824 472.907 214.696C468.374 214.621 463.987 216.058 459.775 217.581C455.235 219.222 450.705 220.894 446.171 222.552L418.821 232.547L411.984 235.046C410.771 235.489 411.295 237.444 412.522 236.996Z" fill="#D3D3D3"/>
<path d="M144.569 125.085C130.767 117.997 113.092 119.385 100.409 128.241C124.601 132.411 148.528 137.991 172.068 144.952C162.293 139.228 154.646 130.26 144.569 125.085Z" fill="#D3D3D3"/>
<path d="M100.274 128.216L97.6165 130.374C98.5153 129.619 99.4496 128.911 100.409 128.241C100.364 128.233 100.319 128.224 100.274 128.216Z" fill="#D3D3D3"/>
<path d="M486.905 237.095C484.231 233.843 481.341 230.438 477.342 229.118L473.609 229.265C502.029 279.445 540.412 323.292 586.403 358.115C553.237 317.775 520.071 277.435 486.905 237.095Z" fill="#D3D3D3"/>
<path d="M254.743 210.27C256.471 216.542 260.363 222.001 265.732 225.682C267.807 227.094 270.263 228.448 270.973 230.855C271.346 232.389 271.116 234.008 270.33 235.377C269.545 236.729 268.59 237.975 267.488 239.084L267.387 239.461C262.237 236.411 257.337 232.553 254.492 227.29C251.647 222.026 251.25 215.128 254.743 210.27Z" fill="#D3D3D3"/>
<path d="M426.216 359.548C427.944 365.82 431.836 371.279 437.204 374.96C439.28 376.372 441.735 377.727 442.445 380.133C442.819 381.667 442.589 383.286 441.802 384.655C441.017 386.007 440.062 387.253 438.961 388.363L438.86 388.739C433.71 385.689 428.81 381.832 425.965 376.568C423.12 371.305 422.723 364.406 426.216 359.548Z" fill="#D3D3D3"/>
<path d="M84.0066 349.253C85.7343 355.525 89.6266 360.984 94.9949 364.665C97.0703 366.077 99.5259 367.432 100.236 369.838C100.609 371.372 100.379 372.991 99.593 374.361C98.8081 375.712 97.8531 376.958 96.7513 378.068L96.6508 378.444C91.5004 375.394 86.6005 371.537 83.7555 366.273C80.9105 361.01 80.5133 354.111 84.0066 349.253Z" fill="#D3D3D3"/>
<path d="M477.804 75.0068C498.533 75.0068 515.337 58.216 515.337 37.5034C515.337 16.7908 498.533 0 477.804 0C457.076 0 440.272 16.7908 440.272 37.5034C440.272 58.216 457.076 75.0068 477.804 75.0068Z" fill="#FEA93A"/>
<path d="M545.536 8.72907C527.346 6.27227 506.58 16.0964 501.865 33.8222C500.677 30.6705 498.517 27.9779 495.697 26.1333C492.877 24.2886 489.543 23.3875 486.177 23.5601C482.811 23.7327 479.587 24.9701 476.971 27.0934C474.355 29.2168 472.482 32.1162 471.623 35.3728L473.705 36.8632C512.686 45.2862 553.037 45.1039 591.94 36.329C579.287 23.0419 563.726 11.1858 545.536 8.72907Z" fill="#D3D3D3"/>
<path d="M467.527 58.7335C449.337 56.2767 428.571 66.1008 423.856 83.8266C422.668 80.6749 420.508 77.9823 417.688 76.1377C414.868 74.293 411.534 73.3919 408.168 73.5645C404.802 73.7371 401.578 74.9745 398.962 77.0978C396.346 79.2212 394.473 82.1206 393.614 85.3772L395.696 86.8676C434.677 95.2906 475.028 95.1083 513.931 86.3334C501.278 73.0462 485.717 61.1902 467.527 58.7335Z" fill="#D3D3D3"/>
<path d="M626.288 68.1885C626.213 68.1887 626.138 68.1771 626.066 68.1541C431.48 6.66454 259.98 14.7054 150.373 32.2786C135.457 34.6693 120.501 37.4305 105.92 40.4861C102.197 41.2653 98.3356 42.1005 94.4417 42.9701C89.7915 44.0049 85.203 45.0706 80.8032 46.1363C78.9031 46.5859 77.04 47.039 75.214 47.4957C72.4482 48.178 69.6417 48.8889 66.6333 49.6702C63.2716 50.5363 59.8561 51.4447 56.4793 52.3704C56.467 52.3747 56.4544 52.3783 56.4416 52.3811L56.4419 52.3819C52.6279 53.4224 48.8339 54.4932 45.165 55.5625C43.1793 56.1355 41.2619 56.7007 39.4253 57.2587C39.2201 57.3154 39.0383 57.37 38.8539 57.426L38.4594 57.5459C38.2308 57.6156 38.0052 57.6838 37.7795 57.7484L37.7651 57.7527L37.7655 57.7535L37.1682 57.9388C36.456 58.1542 35.761 58.3646 35.0776 58.5743C17.0141 64.1384 7.08405 68.0967 6.98595 68.1354C6.89625 68.1714 6.80034 68.1893 6.7037 68.1882C6.60706 68.1871 6.51159 68.167 6.42273 68.129C6.33387 68.091 6.25336 68.0359 6.18581 67.9669C6.11826 67.8978 6.06498 67.8161 6.02902 67.7265C5.99306 67.6368 5.97514 67.541 5.97624 67.4444C5.97735 67.3479 5.99749 67.2525 6.03549 67.1637C6.0735 67.0749 6.12863 66.9945 6.19775 66.927C6.26686 66.8595 6.34861 66.8062 6.43831 66.7703C6.53714 66.7315 16.5157 62.7531 34.6449 57.1682C35.3309 56.9578 36.0277 56.7474 36.7421 56.5313L37.2969 56.3589C37.3159 56.3517 37.335 56.346 37.3544 56.3402C37.579 56.2763 37.8032 56.2081 38.031 56.1392L38.4263 56.0192C38.6232 55.9596 38.8173 55.9007 39.016 55.8462C40.84 55.2918 42.7639 54.7252 44.7547 54.1499C48.425 53.0799 52.2225 52.0092 56.0395 50.9672C56.0514 50.9629 56.0636 50.96 56.0754 50.9564C59.464 50.0279 62.8922 49.1152 66.2646 48.2462C69.2777 47.4642 72.0895 46.7518 74.8601 46.0681C76.6938 45.6121 78.5605 45.158 80.4601 44.7059C84.8649 43.6387 89.4627 42.5716 94.1212 41.5346C98.0212 40.6642 101.889 39.8269 105.618 39.047C120.221 35.9864 135.201 33.2209 150.14 30.8266C259.904 13.2282 431.65 5.17441 626.509 66.7523C626.677 66.8051 626.82 66.9161 626.913 67.0653C627.006 67.2144 627.042 67.3917 627.015 67.5653C626.989 67.7388 626.9 67.897 626.767 68.0113C626.634 68.1257 626.464 68.1885 626.288 68.1885Z" fill="#D3D3D3"/>
<path d="M193.542 308.734C193.288 307.989 192.859 307.316 192.291 306.771C192.082 306.576 191.855 306.402 191.614 306.248C189.693 304.969 186.823 304.682 184.998 306.248C184.814 306.408 184.645 306.582 184.49 306.771C183.946 307.44 183.387 308.094 182.812 308.734C181.87 309.808 180.906 310.844 179.898 311.852C179.611 312.131 179.324 312.418 179.03 312.698C178.861 312.867 178.691 313.028 178.522 313.19C177.874 313.808 177.212 314.404 176.542 314.992C176.189 315.308 175.836 315.617 175.475 315.918C174.938 316.367 174.401 316.816 173.856 317.249C173.805 317.286 173.753 317.323 173.702 317.367C173.687 317.374 173.68 317.389 173.665 317.396C173.657 317.396 173.65 317.396 173.643 317.411C173.623 317.419 173.605 317.432 173.591 317.448C173.429 317.558 173.319 317.632 173.238 317.698C173.267 317.683 173.297 317.661 173.326 317.646C173.194 317.749 173.054 317.852 172.922 317.955C171.634 318.904 170.316 319.816 168.97 320.669C165.638 322.8 162.138 324.657 158.505 326.221C158.262 326.316 158.012 326.419 157.761 326.515C148.249 330.409 137.93 331.928 127.698 330.942C126.653 330.861 125.608 330.751 124.563 330.611C123.356 330.434 122.157 330.221 120.965 329.978C116.426 329.074 111.985 327.734 107.703 325.978C102.347 323.527 97.2529 320.541 92.4986 317.066C91.7627 316.543 91.0194 316.021 90.2761 315.514C91.1225 313.44 91.9541 311.366 92.7636 309.278C93.1684 308.271 93.5584 307.263 93.9411 306.248C96.9511 298.431 99.777 290.541 102.485 282.621C105.223 274.598 107.806 266.529 110.235 258.413C110.485 257.59 110.728 256.766 110.963 255.942C112.236 251.655 113.458 247.358 114.628 243.051C114.739 242.632 114.856 242.221 114.959 241.801C115.298 240.566 115.629 239.331 115.953 238.095C116.689 235.308 115.026 231.977 112.097 231.308C110.686 230.946 109.191 231.146 107.925 231.865C106.659 232.584 105.722 233.765 105.311 235.161C104.995 236.352 104.678 237.536 104.355 238.728C102.802 244.485 101.168 250.224 99.4532 255.942C99.203 256.766 98.9528 257.59 98.7026 258.413C94.9199 270.87 90.7668 283.202 86.2432 295.409C85.6986 296.887 85.1467 298.36 84.5874 299.829C84.3151 300.549 84.0428 301.27 83.7631 301.991C83.2259 303.41 82.6739 304.829 82.122 306.248C81.8055 307.079 81.4817 307.91 81.1579 308.734C80.9445 309.256 80.7384 309.778 80.5324 310.293C78.4341 309.54 76.2601 309.017 74.0488 308.734L73.6955 308.69C71.9811 308.484 70.2473 308.499 68.5366 308.734C65.9764 309.032 63.513 309.889 61.3206 311.244C59.1282 312.598 57.2604 314.418 55.8491 316.573C52.3387 322.095 52.3829 329.993 57.3063 334.685C62.3769 339.516 70.0527 339.479 76.0211 336.457C79.184 334.747 81.8509 332.25 83.7631 329.206C84.4957 328.103 85.1688 326.962 85.7796 325.787C85.9341 325.89 86.0887 325.993 86.2432 326.103C86.832 326.515 87.4207 326.934 88.0021 327.346C91.3896 329.798 94.9594 331.989 98.6805 333.898C106.682 337.873 115.294 340.475 124.159 341.597C124.357 341.619 124.549 341.649 124.747 341.671C125.726 341.796 126.712 341.891 127.698 341.972C141.845 343.037 156.008 340.145 168.602 333.619C169.669 333.067 170.726 332.489 171.773 331.883C173.4 330.942 174.99 329.942 176.542 328.883C177.389 328.309 178.213 327.728 179.03 327.118C182.599 324.491 185.927 321.55 188.972 318.33C190.128 317.117 191.234 315.864 192.291 314.573C193.291 313.516 193.867 312.129 193.91 310.675C193.905 310.011 193.78 309.354 193.542 308.734ZM71.6791 326.25C71.8336 326.14 71.9882 326.022 72.1354 325.905C72.0912 326.015 71.8778 326.14 71.6791 326.25ZM74.0414 323.875C73.8722 324.066 73.7176 324.257 73.5483 324.449C73.0334 325.024 72.4802 325.565 71.8925 326.066C71.8115 326.14 71.7232 326.213 71.6349 326.28C71.634 326.28 71.633 326.28 71.6321 326.28C71.6312 326.281 71.6304 326.281 71.6297 326.282C71.629 326.282 71.6284 326.283 71.6281 326.284C71.6277 326.285 71.6275 326.286 71.6276 326.287C71.5213 326.334 71.418 326.388 71.3184 326.449C71.002 326.64 70.6782 326.816 70.347 326.978C69.6986 327.217 69.0316 327.401 68.3527 327.53C67.831 327.568 67.3074 327.573 66.7851 327.544H66.7704C66.4099 327.465 66.0538 327.366 65.7033 327.25C65.5267 327.162 65.3574 327.059 65.1881 326.956C65.1219 326.897 65.063 326.838 65.0262 326.802C64.9543 326.736 64.8879 326.665 64.8276 326.588C64.8276 326.588 64.8274 326.587 64.827 326.586C64.8267 326.585 64.8262 326.584 64.8255 326.583C64.8248 326.583 64.824 326.582 64.8231 326.582C64.8221 326.581 64.8212 326.581 64.8202 326.581C64.7392 326.434 64.6509 326.287 64.57 326.14C64.5658 326.136 64.5632 326.131 64.5626 326.125C64.5038 325.941 64.4523 325.75 64.4081 325.559C64.3921 325.223 64.3946 324.887 64.4154 324.552C64.5142 324.082 64.647 323.62 64.8129 323.169C64.9619 322.85 65.1315 322.54 65.3207 322.242C65.3354 322.213 65.409 322.095 65.4899 321.963C65.4973 321.956 65.4973 321.956 65.4973 321.948C65.6077 321.823 65.7181 321.691 65.8358 321.573C66.0345 321.353 66.2479 321.162 66.4614 320.963C66.8764 320.692 67.3064 320.444 67.7492 320.22C68.4518 319.971 69.1727 319.777 69.9055 319.639C70.9861 319.554 72.0722 319.563 73.151 319.669C74.1728 319.846 75.181 320.094 76.1683 320.411C75.57 321.572 74.8887 322.688 74.1298 323.75C74.1003 323.794 74.0709 323.838 74.0414 323.875ZM65.8578 321.456C65.793 321.56 65.7165 321.656 65.6297 321.742C65.6881 321.634 65.7654 321.537 65.8578 321.456Z" fill="#111922"/>
<path d="M171.42 233.631C171.354 235.94 171.288 238.249 171.222 240.559C171.082 245.684 170.937 250.812 170.787 255.942C170.633 261.715 170.471 267.485 170.302 273.253C170.221 276.231 170.137 279.209 170.051 282.187C169.823 290.21 169.598 298.23 169.374 306.248C169.352 307.079 169.323 307.903 169.301 308.734C169.19 312.712 169.08 316.69 168.97 320.669C168.844 324.985 168.722 329.302 168.602 333.618C168.513 336.854 168.423 340.092 168.329 343.333C167.667 366.813 167.005 390.293 166.342 413.773C166.314 415.227 165.724 416.613 164.695 417.642C163.666 418.67 162.278 419.26 160.823 419.288C159.363 419.276 157.965 418.691 156.933 417.66C155.9 416.628 155.315 415.232 155.303 413.773C155.671 400.566 156.044 387.359 156.422 374.152C156.753 362.209 157.089 350.267 157.43 338.325C157.541 334.391 157.651 330.454 157.761 326.515C157.931 320.588 158.097 314.661 158.262 308.734C158.284 307.903 158.313 307.079 158.335 306.248C158.35 305.52 158.372 304.8 158.394 304.072C158.718 292.563 159.042 281.052 159.366 269.539C159.498 265.009 159.626 260.477 159.748 255.942C159.895 250.773 160.043 245.606 160.19 240.441C160.256 238.169 160.315 235.904 160.381 233.631C160.409 232.177 161 230.791 162.029 229.763C163.058 228.734 164.446 228.144 165.901 228.116C167.361 228.128 168.758 228.713 169.791 229.745C170.823 230.776 171.408 232.172 171.42 233.631Z" fill="#111922"/>
<path d="M474.204 235.162C468.416 257.061 461.499 278.646 453.479 299.831C451.267 305.674 449.003 311.506 446.583 317.267L447.139 315.95C446.059 318.694 444.679 321.311 443.026 323.753C442.913 323.911 442.799 324.067 442.682 324.221C443.254 323.491 443.362 323.346 443.008 323.788C442.821 324.009 442.636 324.231 442.443 324.447C441.928 325.023 441.375 325.564 440.788 326.067C440.64 326.193 440.49 326.317 440.338 326.438L441.028 325.902C440.948 326.09 440.385 326.341 440.21 326.448C439.643 326.79 439.052 327.089 438.441 327.344L439.759 326.788C438.757 327.191 437.713 327.478 436.645 327.642L438.113 327.445C437.064 327.589 436.001 327.601 434.95 327.478L436.417 327.675C435.557 327.557 434.715 327.33 433.911 327.001L435.23 327.557C434.801 327.37 434.388 327.15 433.994 326.898C433.794 326.768 433.181 326.303 433.983 326.916C434.817 327.553 434.09 326.971 433.919 326.802C433.776 326.661 433.647 326.507 433.507 326.364C432.858 325.699 434.24 327.509 433.799 326.731C433.563 326.341 433.347 325.939 433.152 325.527L433.709 326.845C433.456 326.217 433.276 325.563 433.173 324.895L433.37 326.361C433.265 325.53 433.264 324.689 433.368 323.857L433.171 325.323C433.306 324.395 433.552 323.487 433.903 322.617L433.347 323.935C433.591 323.35 433.881 322.785 434.213 322.244C434.366 321.965 434.546 321.701 434.75 321.456C434.786 321.468 433.816 322.569 434.331 322.013C434.465 321.868 434.591 321.715 434.727 321.57C434.945 321.34 435.179 321.129 435.408 320.91C436.177 320.179 434.333 321.621 435.22 321.042C435.863 320.619 436.539 320.251 437.243 319.939L435.924 320.495C437.103 320.012 438.338 319.681 439.601 319.51L438.133 319.707C439.714 319.525 441.312 319.544 442.888 319.763L441.421 319.566C443.416 319.869 445.367 320.417 447.228 321.199L445.91 320.643C449.876 322.344 453.389 324.871 456.896 327.348C460.283 329.799 463.852 331.988 467.571 333.897C475.573 337.873 484.186 340.476 493.051 341.599C505.765 343.155 518.666 341.496 530.571 336.774C542.476 332.052 553.004 324.418 561.188 314.573C562.187 313.515 562.762 312.127 562.805 310.673C562.794 309.213 562.214 307.814 561.188 306.774C559.163 304.916 555.338 304.392 553.382 306.774C551.529 309.035 549.536 311.178 547.416 313.191C546.427 314.129 545.41 315.039 544.368 315.919C543.772 316.422 543.169 316.915 542.557 317.398C542.267 317.627 541.366 318.235 542.75 317.253C542.433 317.478 542.129 317.724 541.815 317.955C537.181 321.369 532.158 324.224 526.852 326.459L528.171 325.903C522.477 328.29 516.498 329.927 510.382 330.773L511.85 330.576C505.558 331.403 499.185 331.394 492.897 330.548L494.364 330.745C488.077 329.882 481.928 328.209 476.071 325.767L477.389 326.323C471.738 323.824 466.374 320.719 461.393 317.064C458.8 315.145 456.066 313.426 453.214 311.92C449.892 310.225 446.294 309.132 442.589 308.693C435.643 307.876 428.564 310.58 424.745 316.577C421.231 322.095 421.276 329.992 426.198 334.685C431.267 339.518 438.943 339.477 444.917 336.454C450.67 333.542 454.125 327.493 456.556 321.79C462.024 308.954 466.866 295.821 471.377 282.622C475.84 269.563 479.887 256.373 483.519 243.05C483.969 241.4 484.412 239.748 484.849 238.094C485.585 235.308 483.921 231.976 480.994 231.31C479.583 230.947 478.086 231.146 476.82 231.865C475.553 232.583 474.615 233.766 474.204 235.162Z" fill="#111922"/>
<path d="M529.276 233.631L527.289 304.074L525.313 374.15L524.196 413.774C524.208 415.232 524.794 416.628 525.826 417.66C526.858 418.691 528.255 419.276 529.715 419.289C531.17 419.261 532.558 418.671 533.587 417.642C534.616 416.614 535.206 415.227 535.235 413.774L537.221 343.331L539.198 273.255L540.315 233.631C540.303 232.173 539.717 230.777 538.685 229.745C537.652 228.714 536.256 228.129 534.796 228.116C533.341 228.144 531.953 228.734 530.924 229.763C529.895 230.791 529.304 232.177 529.276 233.631Z" fill="#111922"/>
<path opacity="0.2" d="M338.229 394.106H339.943V316.127H379.925V314.419H339.943V281.516H370.819C370.367 280.94 369.901 280.372 369.422 279.812H339.943V258.08C339.376 257.838 338.805 257.606 338.229 257.386V279.812H304.632V251.967C304.056 251.994 303.489 252.033 302.918 252.081V279.812H276.115V259.037C275.54 259.292 274.973 259.56 274.41 259.841V279.812H251.879V281.516H274.41V314.419H251.879V316.127H274.41V394.106H276.115V316.127C279.635 316.126 283.121 316.819 286.373 318.164C289.625 319.51 292.58 321.483 295.069 323.97C297.558 326.457 299.533 329.41 300.879 332.659C302.226 335.909 302.919 339.392 302.918 342.909V394.106H304.632V316.127H338.229V394.106ZM276.115 314.419V281.516H302.918V314.419H276.115ZM304.632 314.419V281.516H305.304C309.628 281.516 313.91 282.367 317.905 284.021C321.9 285.675 325.529 288.098 328.587 291.154C331.644 294.209 334.069 297.836 335.723 301.828C337.378 305.82 338.229 310.098 338.229 314.419H304.632Z" fill="#111922"/>
<path d="M327.762 370.725C325.604 380.343 320.436 389.023 313.007 395.507C312.462 395.977 311.917 396.433 311.351 396.882C309.975 397.007 308.608 397.134 307.252 397.264C306.126 397.367 305.014 397.477 303.91 397.58L303.712 397.602L303.572 396.396L303.013 391.514C300.843 387.974 299.498 383.992 299.078 379.863C298.657 375.733 299.172 371.562 300.584 367.659C302.527 362.423 306.045 357.797 309.504 353.209C314.28 346.87 318.923 340.605 319.093 332.876C321.443 335.881 323.397 339.176 324.907 342.678C323.482 343.349 322.202 344.29 321.139 345.451C320.837 345.781 320.535 346.245 320.741 346.642C320.918 346.98 321.359 347.061 321.742 347.105C322.662 347.201 323.589 347.296 324.509 347.392C325.245 347.473 325.981 347.546 326.717 347.627C327.607 350.547 328.211 353.547 328.52 356.584C329.016 361.308 328.76 366.081 327.762 370.725Z" fill="#111922"/>
<path d="M352.195 351.451C347.853 354.606 345.314 359.143 343.342 364.144C341.32 364.79 339.502 365.951 338.065 367.512C337.763 367.843 337.462 368.306 337.668 368.703C337.844 369.041 338.286 369.122 338.669 369.166C339.589 369.262 340.516 369.357 341.436 369.453C339.463 375.365 337.653 381.483 334.165 386.477C331.845 389.773 328.821 392.513 325.311 394.499C324.355 395.044 323.367 395.533 322.353 395.963C318.614 396.25 314.947 396.556 311.351 396.882C309.975 397.007 308.608 397.134 307.252 397.264C306.126 397.367 305.014 397.478 303.91 397.581C303.903 397.176 303.903 396.772 303.91 396.367C304.143 385.593 308.11 375.234 315.133 367.056C315.465 366.673 315.803 366.298 316.149 365.923C319.707 362.126 323.892 358.967 328.52 356.584C335.813 352.795 343.987 351.023 352.195 351.451Z" fill="#FEA93A"/>
<path d="M308.525 393.492L307.678 395.992L307.252 397.264C306.126 397.367 305.014 397.477 303.91 397.58L303.712 397.602C302.49 397.727 301.276 397.852 300.061 397.977C299.745 397.61 299.429 397.235 299.119 396.852C291.438 387.557 287.751 375.602 288.863 363.599C289.976 351.596 295.799 340.521 305.058 332.795C304.087 337.876 305.22 342.744 307.082 347.576C306.884 347.657 306.692 347.737 306.508 347.826C305.084 348.496 303.804 349.438 302.74 350.598C302.439 350.929 302.137 351.392 302.343 351.789C302.519 352.128 302.961 352.208 303.344 352.253C304.264 352.348 305.191 352.444 306.111 352.539C306.847 352.62 307.583 352.694 308.319 352.775C308.665 352.811 309.01 352.848 309.356 352.885C309.408 352.995 309.452 353.098 309.504 353.209C311.601 357.753 313.86 362.32 315.133 367.055C315.453 368.244 315.703 369.449 315.884 370.666C316.451 374.779 316.084 378.966 314.81 382.917C313.536 386.869 311.387 390.483 308.525 393.492Z" fill="#FEA93A"/>
<path d="M382.603 286.835C376.267 274.487 366.452 264.097 354.908 256.462C343.327 248.838 330.038 244.194 316.225 242.946C314.415 242.782 312.599 242.685 310.78 242.657C308.63 242.625 276.29 251.946 265.456 259.557C254.628 267.076 245.721 277.033 239.453 288.624C233.196 300.279 230.119 313.374 230.53 326.593C231.066 339.892 234.776 352.871 241.35 364.447C247.834 375.985 257.041 385.766 268.17 392.939C279.458 400.135 290.797 419.217 304.124 419.891C317.552 420.57 332.865 402.569 345.112 397.104C357.359 391.593 367.946 382.972 375.819 372.098C383.47 361.442 388.419 349.091 390.243 336.104C392.137 322.806 391.254 309.092 386.709 296.383C385.543 293.117 384.171 289.928 382.603 286.835C381.293 284.258 377.454 283.308 375.051 284.857C373.813 285.618 372.916 286.828 372.547 288.233C372.179 289.638 372.366 291.132 373.071 292.402C373.84 293.916 374.555 295.455 375.216 297.019L374.66 295.701C377.162 301.713 378.863 308.027 379.72 314.481L379.523 313.015C380.435 320.017 380.419 327.109 379.475 334.107L379.672 332.641C378.718 339.638 376.848 346.48 374.112 352.991L374.668 351.674C373.261 354.996 371.62 358.215 369.759 361.306C368.815 362.867 367.814 364.392 366.756 365.881C366.291 366.534 365.811 367.176 365.329 367.816C364.698 368.651 366.187 366.725 365.536 367.544C365.425 367.684 365.315 367.824 365.204 367.963C364.87 368.38 364.531 368.794 364.187 369.204C361.892 371.939 359.388 374.492 356.698 376.839C356.027 377.424 355.346 377.995 354.653 378.554C354.308 378.832 353.968 379.122 353.608 379.381C353.621 379.371 354.77 378.499 354.09 379.005C353.876 379.164 353.664 379.326 353.45 379.484C352.023 380.541 350.557 381.544 349.054 382.493C345.592 384.672 341.961 386.569 338.194 388.165L339.513 387.609C333.016 390.342 326.188 392.209 319.204 393.162L320.671 392.965C313.69 393.908 306.615 393.921 299.631 393.003L301.098 393.2C294.751 392.348 288.542 390.671 282.63 388.211L283.948 388.767C280.524 387.322 277.222 385.603 274.075 383.626C272.518 382.645 271.001 381.604 269.524 380.502C269.314 380.345 269.105 380.186 268.895 380.028C268.221 379.52 269.379 380.402 269.388 380.408C268.997 380.128 268.62 379.827 268.259 379.508C267.546 378.928 266.844 378.334 266.153 377.727C263.389 375.295 260.808 372.662 258.431 369.852C257.836 369.149 257.253 368.435 256.684 367.711C256.437 367.398 255.987 366.763 256.981 368.1C256.85 367.924 256.715 367.752 256.582 367.577C256.265 367.156 255.952 366.733 255.644 366.306C254.563 364.812 253.535 363.281 252.562 361.713C250.361 358.164 248.44 354.45 246.817 350.603L247.374 351.92C244.718 345.606 242.902 338.971 241.972 332.185L242.169 333.652C241.33 327.396 241.318 321.058 242.133 314.8L241.936 316.266C242.772 310.206 244.404 304.282 246.789 298.648L246.233 299.965C247.734 296.438 249.504 293.031 251.528 289.776C252.541 288.146 253.615 286.557 254.75 285.007C255.007 284.655 255.268 284.305 255.532 283.957C255.77 283.642 256.426 282.859 255.307 284.243C255.417 284.107 255.522 283.967 255.63 283.831C256.253 283.043 256.891 282.267 257.543 281.503C260.015 278.613 262.691 275.904 265.553 273.399C266.276 272.766 267.011 272.146 267.757 271.539C268.096 271.264 268.437 270.991 268.78 270.721C268.918 270.613 269.057 270.507 269.194 270.398C267.724 271.567 268.785 270.716 269.119 270.467C270.656 269.315 272.235 268.222 273.855 267.186C277.456 264.885 281.243 262.891 285.178 261.224L283.86 261.78C289.571 259.384 314.873 253.728 319.475 254.345L318.007 254.148C324.771 255.092 331.382 256.917 337.671 259.577L336.353 259.021C339.54 260.373 342.637 261.928 345.626 263.675C347.119 264.55 348.583 265.472 350.017 266.442C350.696 266.901 351.368 267.371 352.032 267.85C352.365 268.09 352.695 268.333 353.023 268.578C353.206 268.714 353.387 268.851 353.569 268.988C354.334 269.561 352.515 268.158 353.317 268.792C356 270.898 358.549 273.171 360.947 275.596C362.125 276.795 363.263 278.032 364.36 279.306C364.922 279.96 365.473 280.624 366.013 281.297C366.281 281.632 367.194 282.842 366.075 281.36C366.348 281.722 366.625 282.082 366.895 282.447C369.221 285.592 371.286 288.922 373.071 292.402C374.39 294.974 378.212 295.933 380.622 294.381C381.861 293.62 382.758 292.41 383.127 291.005C383.496 289.599 383.308 288.106 382.603 286.835Z" fill="#111922"/>
<path d="M318.289 376.84C317.719 376.866 317.155 376.717 316.673 376.412C316.192 376.107 315.815 375.662 315.595 375.136C315.375 374.61 315.322 374.029 315.443 373.472C315.565 372.915 315.854 372.409 316.273 372.022C316.343 371.744 316.394 371.544 316.464 371.265C316.439 371.205 316.413 371.144 316.388 371.084C313.827 364.982 297.486 381.991 296.779 387.726C296.468 390.261 296.599 392.83 297.167 395.321C291.874 383.783 289.125 371.243 289.107 358.55C289.106 355.365 289.283 352.183 289.638 349.018C289.931 346.423 290.337 343.847 290.857 341.289C293.694 327.41 299.786 314.402 308.631 303.332C313.69 303.614 318.123 302.844 318.551 293.048C318.627 291.305 319.921 289.796 320.206 288.08C319.723 288.143 319.232 288.182 318.749 288.214C318.599 288.222 318.44 288.23 318.29 288.238L318.233 288.24C317.702 288.264 317.176 288.134 316.718 287.866C316.259 287.598 315.888 287.203 315.649 286.729C315.409 286.255 315.313 285.722 315.37 285.194C315.426 284.666 315.635 284.166 315.97 283.754C316.178 283.497 316.387 283.241 316.596 282.985C316.912 282.589 317.237 282.202 317.554 281.806C317.59 281.769 317.625 281.729 317.657 281.687C318.021 281.237 318.385 280.793 318.749 280.343C318.084 279.312 317.19 278.448 316.136 277.819C312.487 275.683 307.451 277.162 304.815 280.461C302.171 283.76 301.672 288.388 302.59 292.51C303.493 296.017 304.987 299.345 307.008 302.351C306.81 302.604 306.604 302.849 306.406 303.102C302.788 307.751 299.635 312.743 296.991 318.007C297.739 312.169 288.593 291.087 285.056 286.621C280.807 281.257 272.095 283.598 271.347 290.398C271.34 290.464 271.332 290.529 271.325 290.595C271.851 290.891 272.365 291.206 272.868 291.538C273.5 291.96 273.99 292.563 274.274 293.268C274.557 293.973 274.62 294.747 274.456 295.489C274.292 296.23 273.907 296.905 273.352 297.424C272.797 297.944 272.098 298.284 271.347 298.399L271.27 298.411C264.238 308.444 286.782 334.558 292.425 328.694C289.769 336.216 288.103 344.05 287.469 352C287.11 356.691 287.131 361.402 287.532 366.09L287.508 365.923C286.254 355.715 264.745 340.537 258.463 341.801C254.845 342.529 251.281 342.364 251.831 346.011C251.839 346.069 251.848 346.127 251.857 346.186C252.832 346.582 253.781 347.039 254.7 347.554C255.225 347.85 255.739 348.165 256.242 348.497C256.874 348.919 257.364 349.522 257.648 350.227C257.931 350.932 257.994 351.706 257.83 352.448C257.666 353.189 257.281 353.864 256.726 354.383C256.171 354.903 255.472 355.243 254.721 355.358L254.644 355.37C254.589 355.378 254.541 355.386 254.486 355.394C251.285 366.4 275.024 384.161 289.456 378.51H289.464C290.894 384.72 292.966 390.765 295.647 396.547H317.736C317.815 396.301 317.886 396.048 317.957 395.803C315.913 395.931 313.86 395.809 311.845 395.439C313.484 393.43 315.123 391.405 316.762 389.395C316.798 389.358 316.833 389.318 316.865 389.277C317.696 388.248 318.535 387.228 319.367 386.199L319.367 386.198C319.411 383.046 319.049 379.901 318.29 376.841L318.289 376.84ZM292.995 327.12L293.006 327.104L292.995 327.136V327.12ZM288.102 371.192L287.912 370.765C287.92 370.456 287.92 370.148 287.912 369.831C287.912 369.744 287.896 369.657 287.896 369.57C287.967 370.116 288.031 370.662 288.11 371.208L288.102 371.192Z" fill="#111922"/>
<path d="M70.0968 330.912C74.5677 330.912 78.1921 327.291 78.1921 322.823C78.1921 318.356 74.5677 314.734 70.0968 314.734C65.6259 314.734 62.0016 318.356 62.0016 322.823C62.0016 327.291 65.6259 330.912 70.0968 330.912Z" fill="#111922"/>
<path d="M167.24 419.156C171.711 419.156 175.335 415.534 175.335 411.067C175.335 406.6 171.711 402.978 167.24 402.978C162.769 402.978 159.145 406.6 159.145 411.067C159.145 415.534 162.769 419.156 167.24 419.156Z" fill="#111922"/>
<path d="M535.943 419.156C540.414 419.156 544.038 415.534 544.038 411.067C544.038 406.6 540.414 402.978 535.943 402.978C531.472 402.978 527.848 406.6 527.848 411.067C527.848 415.534 531.472 419.156 535.943 419.156Z" fill="#111922"/>
<path d="M555.813 316.205C560.284 316.205 563.909 312.584 563.909 308.116C563.909 303.649 560.284 300.027 555.813 300.027C551.342 300.027 547.718 303.649 547.718 308.116C547.718 312.584 551.342 316.205 555.813 316.205Z" fill="#111922"/>
<path d="M532.263 241.198C536.734 241.198 540.359 237.577 540.359 233.109C540.359 228.642 536.734 225.021 532.263 225.021C527.793 225.021 524.168 228.642 524.168 233.109C524.168 237.577 527.793 241.198 532.263 241.198Z" fill="#111922"/>
<path d="M194.47 308.116C194.465 310.183 193.665 312.168 192.236 313.661C190.807 315.155 188.858 316.042 186.793 316.14C184.727 316.238 182.703 315.538 181.14 314.186C179.576 312.834 178.592 310.933 178.392 308.876C178.192 306.82 178.791 304.765 180.065 303.138C181.338 301.51 183.19 300.434 185.235 300.132C187.281 299.831 189.364 300.326 191.055 301.517C192.745 302.707 193.912 304.501 194.315 306.528C194.419 307.051 194.471 307.583 194.47 308.116Z" fill="#111922"/>
<path d="M356.375 264.73C360.846 264.73 364.47 261.109 364.47 256.641C364.47 252.174 360.846 248.552 356.375 248.552C351.904 248.552 348.28 252.174 348.28 256.641C348.28 261.109 351.904 264.73 356.375 264.73Z" fill="#111922"/>
<path d="M276.158 256.641C276.153 258.707 275.354 260.693 273.925 262.186C272.496 263.68 270.547 264.567 268.481 264.665C266.416 264.762 264.392 264.063 262.828 262.711C261.265 261.359 260.281 259.458 260.081 257.401C259.881 255.345 260.479 253.29 261.753 251.663C263.027 250.035 264.878 248.959 266.924 248.657C268.97 248.355 271.053 248.851 272.743 250.042C274.433 251.232 275.601 253.026 276.004 255.053C276.108 255.576 276.159 256.108 276.158 256.641Z" fill="#111922"/>
<path d="M171.656 233.109C171.651 235.176 170.851 237.161 169.422 238.654C167.993 240.148 166.044 241.035 163.979 241.133C161.913 241.231 159.889 240.531 158.326 239.179C156.762 237.827 155.778 235.926 155.578 233.87C155.378 231.813 155.977 229.758 157.251 228.131C158.524 226.503 160.376 225.427 162.421 225.125C164.467 224.824 166.55 225.319 168.241 226.51C169.931 227.7 171.098 229.495 171.501 231.521C171.605 232.044 171.657 232.576 171.656 233.109Z" fill="#111922"/>
<path d="M441.008 333.854C445.479 333.854 449.103 330.232 449.103 325.765C449.103 321.297 445.479 317.676 441.008 317.676C436.537 317.676 432.912 321.297 432.912 325.765C432.912 330.232 436.537 333.854 441.008 333.854Z" fill="#111922"/>
<path d="M313.691 260.318C320.194 260.318 325.466 255.05 325.466 248.552C325.466 242.054 320.194 236.786 313.691 236.786C307.188 236.786 301.916 242.054 301.916 248.552C301.916 255.05 307.188 260.318 313.691 260.318Z" fill="#111922"/>
<path d="M632.124 419.774L0.876258 420C0.761185 420 0.647236 419.977 0.540923 419.933C0.43461 419.889 0.338018 419.825 0.256649 419.744C0.175281 419.662 0.110728 419.566 0.0666918 419.46C0.0226555 419.353 0 419.239 0 419.125C0 419.01 0.0226555 418.896 0.0666918 418.789C0.110728 418.683 0.175281 418.587 0.256649 418.505C0.338018 418.424 0.43461 418.36 0.540923 418.316C0.647236 418.272 0.761185 418.249 0.876258 418.249L632.124 418.023C632.356 418.024 632.578 418.116 632.742 418.28C632.906 418.444 632.998 418.667 632.998 418.899C632.998 419.13 632.906 419.353 632.742 419.517C632.578 419.681 632.356 419.773 632.124 419.774Z" fill="#D3D3D3"/>
</g>
<defs>
<clipPath id="clip0_14_3015">
<rect width="633" height="420" fill="white"/>
</clipPath>
</defs>
</svg>
